#!OML:ASF I:\Actors\actors\Patient Classification 2\Patient 1\Session 1\actor1.ASF
:FULLY-SPECIFIED
:DEGREES
854
root -0.995774 17.9286 7.62361 -0.282688 -4.61882 -4.53388
lowerback -0.323926 1.81176 -0.501828
upperback -5.74662 2.41734 0.226665
thorax -5.79661 1.23088 0.400904
lowerneck -36.6364 -3.70144 -1.60741
upperneck 18.9783 -4.94053 2.53181
head 12.2415 -1.91924 0.250117
rclavicle -1.41137e-014 -4.77083e-015
rhumerus -57.0204 -15.623 -26.3533
rradius 141.141
rwrist 10.0619
rhand -53.4971 -54.3789
rfingers 7.12502
rthumb -25.9419 -82.6287
lclavicle -1.41137e-014 -4.77083e-015
lhumerus -53.3128 8.99986 37.3959
lradius 137.86
lwrist -13.4983
lhand -38.9484 -68.0305
lfingers 7.12502
lthumb -11.9539 -38.3919
rfemur 19.7103 2.1869 19.713
rtibia -8.04336
rfoot -14.2987 -10.8972
rtoes 1.00488
lfemur 27.0132 -5.17817 -14.3056
ltibia -21.9761
lfoot -5.49634 21.9106
ltoes -13.8666
855
root -0.999674 17.9351 7.626 -0.575974 -4.5614 -4.58069
lowerback -0.485259 1.72474 -0.607729
upperback -5.47413 2.30525 0.384032
thorax -5.42587 1.18376 0.638922
lowerneck -37.0544 -3.61849 -1.56699
upperneck 18.7528 -4.78714 2.38495
head 12.2081 -1.86869 0.215667
rclavicle -1.60022e-014 -4.77083e-015
rhumerus -56.8181 -15.5038 -26.2584
rradius 140.994
rwrist 10.1377
rhand -53.9523 -54.2289
rfingers 7.12502
rthumb -26.3777 -82.4141
lclavicle -1.60022e-014 -4.77083e-015
lhumerus -53.3989 9.09816 37.3231
lradius 137.887
lwrist -13.4869
lhand -38.9047 -68.0116
lfingers 7.12502
lthumb -11.9118 -38.3705
rfemur 20.4093 2.10041 19.7335
rtibia -8.76688
rfoot -13.6409 -11.1242
rtoes 1.40422
lfemur 27.382 -4.73742 -14.1091
ltibia -22.1544
lfoot -4.94016 21.5831
ltoes -14.7595
856
root -1.00352 17.9446 7.62703 -0.833956 -4.48426 -4.6153
lowerback -0.298792 1.69271 -0.570632
upperback -5.47997 2.26455 0.418246
thorax -5.53782 1.16271 0.649261
lowerneck -37.4266 -3.62754 -1.55894
upperneck 18.8735 -4.77048 2.28039
head 12.3107 -1.87047 0.172892
rclavicle 1.45113e-014 1.35174e-014
rhumerus -57.0461 -15.211 -26.0007
rradius 140.836
rwrist 10.1907
rhand -53.9022 -53.6383
rfingers 7.12502
rthumb -26.3297 -81.8307
lclavicle 1.45113e-014 1.35174e-014
lhumerus -53.5474 8.75568 37.1368
lradius 137.883
lwrist -13.4737
lhand -38.8604 -67.9868
lfingers 7.12502
lthumb -11.869 -38.3432
rfemur 21.1013 1.99319 19.7374
rtibia -9.55174
rfoot -12.9048 -11.4383
rtoes 1.20197
lfemur 27.7085 -4.39004 -13.9444
ltibia -22.3526
lfoot -4.3248 21.4557
ltoes -16.0601
857
root -1.00742 17.9513 7.62588 -1.12836 -4.34724 -4.66394
lowerback -0.0634668 1.6416 -0.52943
upperback -5.4854 2.19934 0.467272
thorax -5.67745 1.1297 0.672597
lowerneck -37.6585 -3.64634 -1.60677
upperneck 18.9064 -4.7585 2.25112
head 12.3602 -1.87019 0.169049
rclavicle -1.74931e-014 -2.38542e-015
rhumerus -57.2325 -14.8947 -25.6967
rradius 140.778
rwrist 9.99882
rhand -53.6518 -53.1958
rfingers 7.12502
rthumb -26.09 -81.4238
lclavicle -1.74931e-014 -2.38542e-015
lhumerus -53.7016 8.45763 36.9848
lradius 137.877
lwrist -13.3909
lhand -38.8276 -67.9424
lfingers 7.12502
lthumb -11.8374 -38.297
rfemur 21.8805 1.82987 19.7453
rtibia -10.4297
rfoot -12.0381 -11.827
rtoes 0.194555
lfemur 28.0632 -4.06586 -13.7471
ltibia -22.5646
lfoot -3.67019 21.2265
ltoes -16.9353
858
root -1.01186 17.9567 7.62385 -1.40315 -4.19402 -4.70191
lowerback 0.513633 1.64496 -0.350045
upperback -5.75695 2.20671 0.385855
thorax -6.28645 1.12249 0.464752
lowerneck -37.6884 -3.7338 -1.663
upperneck 19.0891 -4.86458 2.28512
head 12.4433 -1.91302 0.167676
rclavicle 1.68967e-014 1.59028e-015
rhumerus -57.8751 -14.281 -25.4408
rradius 140.856
rwrist 9.93104
rhand -53.5709 -53.1521
rfingers 7.12502
rthumb -26.0125 -81.3915
lclavicle 1.68967e-014 1.59028e-015
lhumerus -53.872 7.76355 36.7415
lradius 137.919
lwrist -13.1224
lhand -38.8239 -67.8577
lfingers 7.12502
lthumb -11.8339 -38.2121
rfemur 22.7041 1.99072 19.8549
rtibia -11.4341
rfoot -11.3802 -12.4764
rtoes -0.342862
lfemur 28.3817 -3.66772 -13.5283
ltibia -22.8001
lfoot -2.86722 20.7351
ltoes -17.3571
859
root -1.01737 17.9616 7.62088 -1.6255 -4.04112 -4.70937
lowerback 0.23886 1.54094 -0.53798
upperback -5.44569 2.06755 0.54077
thorax -5.80952 1.06657 0.751945
lowerneck -38.0336 -3.64131 -1.56641
upperneck 18.8947 -4.72475 2.11694
head 12.4078 -1.86843 0.113886
rclavicle -3.04141e-014 2.38542e-015
rhumerus -57.5307 -14.2922 -25.5146
rradius 140.783
rwrist 10.1545
rhand -53.5337 -53.3924
rfingers 7.12502
rthumb -25.9769 -81.6371
lclavicle -3.04141e-014 2.38542e-015
lhumerus -53.7867 8.01989 36.9277
lradius 137.889
lwrist -13.0947
lhand -38.8201 -67.9013
lfingers 7.12502
lthumb -11.8302 -38.2554
rfemur 23.5367 2.15242 19.9371
rtibia -12.5851
rfoot -10.7461 -13.1632
rtoes -0.396478
lfemur 28.6478 -3.16607 -13.3018
ltibia -23.0833
lfoot -1.95095 20.0188
ltoes -17.2796
